<svg width="673" height="98" viewBox="0 0 673 98" fill="none" xmlns="http://www.w3.org/2000/svg">
<path fill-rule="evenodd" clip-rule="evenodd" d="M88.4368 16.4498L69.3229 24.335L25.1132 73.324L19.2246 93.1441L3.22882 78.709L22.3427 70.8238L66.5524 21.8348L72.441 2.01465L88.4368 16.4498Z" fill="#6FCCD8"/>
<path d="M22.4472 11.2236C22.4472 17.4222 17.4222 22.4471 11.2236 22.4471C5.02497 22.4471 0 17.4222 0 11.2236C0 5.02496 5.02497 0 11.2236 0C17.4222 0 22.4472 5.02496 22.4472 11.2236Z" fill="#2E37A4"/>
<path d="M55.7559 11.2236C55.7559 17.4222 50.7309 22.4471 44.5323 22.4471C38.3337 22.4471 33.3087 17.4222 33.3087 11.2236C33.3087 5.02496 38.3337 0 44.5323 0C50.7309 0 55.7559 5.02496 55.7559 11.2236Z" fill="#2E37A4"/>
<path d="M89.7888 11.2236C89.7888 17.4222 84.7638 22.4471 78.5652 22.4471C72.3665 22.4471 67.3416 17.4222 67.3416 11.2236C67.3416 5.02496 72.3665 0 78.5652 0C84.7638 0 89.7888 5.02496 89.7888 11.2236Z" fill="#2E37A4"/>
<path d="M55.7559 48.1527C55.7559 54.3513 50.7309 59.3763 44.5323 59.3763C38.3337 59.3763 33.3087 54.3513 33.3087 48.1527C33.3087 41.9541 38.3337 36.9291 44.5323 36.9291C50.7309 36.9291 55.7559 41.9541 55.7559 48.1527Z" fill="#2E37A4"/>
<path d="M89.7888 48.1527C89.7888 54.3513 84.7638 59.3763 78.5652 59.3763C72.3665 59.3763 67.3416 54.3513 67.3416 48.1527C67.3416 41.9541 72.3665 36.9291 78.5652 36.9291C84.7638 36.9291 89.7888 41.9541 89.7888 48.1527Z" fill="#2E37A4"/>
<path d="M22.4472 85.8059C22.4472 92.0045 17.4222 97.0295 11.2236 97.0295C5.02497 97.0295 0 92.0045 0 85.8059C0 79.6073 5.02497 74.5824 11.2236 74.5824C17.4222 74.5824 22.4472 79.6073 22.4472 85.8059Z" fill="#2E37A4"/>
<path d="M89.7888 85.8059C89.7888 92.0045 84.7638 97.0295 78.5652 97.0295C72.3665 97.0295 67.3416 92.0045 67.3416 85.8059C67.3416 79.6073 72.3665 74.5824 78.5652 74.5824C84.7638 74.5824 89.7888 79.6073 89.7888 85.8059Z" fill="#2E37A4"/>
<path d="M147.802 58.7722H138.909V81.2276C138.909 84.1846 138.724 86.8645 138.353 89.2671C137.983 91.6698 137.033 93.5642 135.505 94.9503C134.023 96.3364 131.591 97.0295 128.21 97.0295C124.922 97.0295 122.536 96.3364 121.054 94.9503C119.572 93.518 118.646 91.6236 118.275 89.2671C117.951 86.8645 117.789 84.1846 117.789 81.2276V15.8019C117.789 12.8449 117.951 10.1881 118.275 7.83167C118.646 5.42903 119.572 3.53465 121.054 2.14851C122.536 0.71617 124.922 0 128.21 0H151.137C156.972 0.277227 162.114 1.47854 166.56 3.60395C168.505 4.52804 170.404 5.68316 172.257 7.06929C174.11 8.40922 175.754 10.0957 177.19 12.1287C178.672 14.1155 179.83 16.495 180.663 19.2673C181.543 22.0396 181.983 25.2277 181.983 28.8316C181.983 33.7755 181.196 38.1187 179.621 41.8613C178.093 45.5577 175.87 48.6534 172.952 51.1484C167.023 56.2309 158.64 58.7722 147.802 58.7722ZM138.909 16.3564V42.2771H148.358C150.673 42.1385 152.758 41.5841 154.61 40.6138C156.463 39.6435 157.968 38.2111 159.126 36.3168C160.284 34.3762 160.863 31.8811 160.863 28.8316C160.863 25.9669 160.284 23.6798 159.126 21.9703C158.015 20.2145 156.625 18.8745 154.958 17.9505C153.337 17.1188 151.368 16.5874 149.052 16.3564H138.909Z" fill="white"/>
<path d="M236.59 38.1187C236.59 45.0494 233.163 48.5148 226.308 48.5148C225.289 48.5148 224.085 48.6534 222.695 48.9306C221.352 49.1616 220.009 49.6699 218.666 50.4553C217.647 51.056 216.721 51.8415 215.887 52.8118C215.053 53.8283 214.382 55.0989 213.872 56.6236C213.363 58.1484 213.108 59.9735 213.108 62.0989V81.9206C213.108 84.6467 212.853 87.1648 212.344 89.4751C211.834 91.7391 210.815 93.5642 209.287 94.9503C207.805 96.3364 205.558 97.0295 202.548 97.0295C199.63 97.0295 197.43 96.3364 195.948 94.9503C194.466 93.5642 193.47 91.716 192.96 89.4058C192.497 87.0955 192.266 84.6005 192.266 81.9206V43.1088C192.266 40.2903 192.497 37.7491 192.96 35.4851C193.47 33.1749 194.466 31.3267 195.948 29.9405C197.43 28.5544 199.63 27.8613 202.548 27.8613C205.605 27.8613 207.782 28.693 209.078 30.3564C210.422 31.9735 211.232 34.0758 211.51 36.6633C211.834 39.2045 211.996 41.9075 211.996 44.7722H213.108C214.312 40.0593 216.257 36.0626 218.944 32.7821C221.63 29.5016 224.594 27.8613 227.837 27.8613C231.403 27.8613 233.742 28.6699 234.854 30.2871C236.011 31.9042 236.59 34.5148 236.59 38.1187Z" fill="white"/>
<path d="M303.147 53.2276V57.5246C303.147 59.7887 302.568 61.8217 301.41 63.6236C300.299 65.3794 297.589 66.2573 293.282 66.2573H265.631V72.9107C265.631 75.452 266.279 77.8084 267.576 79.98C268.919 82.1054 271.142 83.1681 274.246 83.1681C276.7 83.1681 278.484 82.7754 279.595 81.9899C280.707 81.1582 281.656 80.0955 282.444 78.8018C282.953 78.0163 283.578 77.3233 284.319 76.7226C285.107 76.0758 286.172 75.5444 287.515 75.1286C288.858 74.6665 290.734 74.4355 293.143 74.4355C295.644 74.4355 297.774 74.9206 299.534 75.8909C301.294 76.815 302.174 78.6401 302.174 81.3662C302.174 84.3695 301.225 86.8876 299.326 88.9206C297.427 90.9074 295.042 92.5015 292.17 93.7028C289.298 94.9041 286.172 95.7589 282.791 96.2671C279.456 96.7754 276.33 97.0295 273.412 97.0295C269.568 96.9833 265.909 96.4982 262.435 95.5741C258.961 94.65 255.904 93.1714 253.264 91.1384C250.578 89.1054 248.447 86.4487 246.873 83.1681C245.298 79.8876 244.51 75.8678 244.51 71.1088V54.891C244.51 50.5478 245.043 46.8283 246.108 43.7326C247.174 40.6831 248.517 38.1418 250.138 36.1088C251.805 34.0758 253.681 32.4818 255.765 31.3267C257.85 30.2178 259.957 29.3861 262.088 28.8316C264.218 28.2772 266.233 27.9306 268.132 27.792C270.077 27.6534 271.745 27.5841 273.134 27.5841C277.812 27.5841 281.818 27.9999 285.153 28.8316C288.442 29.6633 291.197 30.7491 293.421 32.089C295.644 33.429 297.404 34.9768 298.701 36.7326C300.044 38.4422 301.017 40.2441 301.619 42.1385C302.267 43.9867 302.684 45.8811 302.869 47.8217C303.054 49.7623 303.147 51.5643 303.147 53.2276ZM265.631 51.0098V55.8613H282.999C282.999 52.858 282.837 50.3629 282.513 48.3761C282.235 46.3431 281.448 44.8184 280.151 43.8019C278.9 42.7854 276.793 42.2771 273.829 42.2771C270.448 42.2771 268.224 43.2012 267.159 45.0494C266.14 46.8514 265.631 48.8382 265.631 51.0098Z" fill="white"/>
<path d="M372.344 43.5247V81.3662C372.344 84.2309 372.135 86.8645 371.718 89.2671C371.302 91.6236 370.352 93.518 368.87 94.9503C367.434 96.3364 365.118 97.0295 361.923 97.0295C358.912 97.0295 356.643 96.452 355.114 95.2968C353.586 94.0955 352.544 92.617 351.988 90.8612C351.478 89.0592 351.223 87.2341 351.223 85.386C350.297 88.4355 348.63 91.1384 346.221 93.4949C343.813 95.8513 340.478 97.0295 336.217 97.0295C333.67 97.0295 331.122 96.6137 328.575 95.782C326.027 94.9503 323.735 93.5642 321.697 91.6236C319.659 89.683 317.991 87.1648 316.695 84.0691C315.444 80.9272 314.819 77.0692 314.819 72.4949V52.3959C314.819 47.7755 315.444 43.9174 316.695 40.8217C317.991 37.6798 319.659 35.1385 321.697 33.198C323.735 31.3036 326.027 29.9405 328.575 29.1089C331.122 28.2772 333.67 27.8613 336.217 27.8613C340.478 27.8613 343.813 29.0164 346.221 31.3267C348.63 33.6369 350.297 36.363 351.223 39.5049C351.223 35.2541 352.266 32.2277 354.35 30.4257C356.434 28.6237 358.958 27.7227 361.923 27.7227C364.933 27.7227 367.179 28.4389 368.662 29.8712C370.144 31.3036 371.116 33.2211 371.58 35.6237C372.089 38.0263 372.344 40.66 372.344 43.5247ZM336.217 53.9207V70.6929C336.217 73.3728 336.541 75.7292 337.19 77.7622C337.838 79.7952 339.552 80.8117 342.331 80.8117C345.758 80.8117 348.12 79.1484 349.417 75.8216C350.066 74.1583 350.506 72.056 350.737 69.5147C351.015 66.9273 351.177 63.8547 351.223 60.2969C351.223 58.1253 350.969 55.792 350.459 53.2969C349.95 50.7557 349.047 48.5841 347.75 46.7821C346.453 44.9801 344.647 44.0791 342.331 44.0791C339.552 44.0791 337.838 45.0725 337.19 47.0593C336.541 49.0461 336.217 51.3332 336.217 53.9207Z" fill="white"/>
<path d="M443.069 15.8019V81.3662C443.069 84.2309 442.86 86.8645 442.444 89.2671C442.027 91.6236 441.077 93.518 439.595 94.9503C438.159 96.3364 435.844 97.0295 432.648 97.0295C429.637 97.0295 427.368 96.452 425.839 95.2968C424.311 94.0955 423.269 92.617 422.713 90.8612C422.203 89.0592 421.949 87.2341 421.949 85.386C421.022 88.4355 419.355 91.1384 416.946 93.4949C414.538 95.8513 411.203 97.0295 406.942 97.0295C404.395 97.0295 401.847 96.6137 399.3 95.782C396.753 94.9503 394.46 93.5642 392.422 91.6236C390.384 89.683 388.717 87.1648 387.42 84.0691C386.169 80.9272 385.544 77.0692 385.544 72.4949V52.3959C385.544 47.7755 386.169 43.9174 387.42 40.8217C388.717 37.6798 390.384 35.1385 392.422 33.198C394.46 31.3036 396.753 29.9405 399.3 29.1089C401.847 28.2772 404.395 27.8613 406.942 27.8613C411.203 27.8613 414.538 29.0164 416.946 31.3267C419.355 33.6369 421.022 36.363 421.949 39.5049V15.8019C421.949 12.8911 422.18 10.2574 422.643 7.90097C423.153 5.49834 424.172 3.58085 425.7 2.14851C427.229 0.71617 429.545 0 432.648 0C435.658 0 437.905 0.71617 439.387 2.14851C440.869 3.58085 441.842 5.49834 442.305 7.90097C442.814 10.3036 443.069 12.9373 443.069 15.8019ZM406.942 53.9207V70.6929C406.942 73.3728 407.266 75.7292 407.915 77.7622C408.563 79.7952 410.277 80.8117 413.056 80.8117C416.483 80.8117 418.845 79.1484 420.142 75.8216C420.791 74.1583 421.231 72.056 421.462 69.5147C421.74 66.9273 421.902 63.8547 421.949 60.2969C421.949 58.1253 421.694 55.792 421.184 53.2969C420.675 50.7557 419.772 48.5841 418.475 46.7821C417.178 44.9801 415.372 44.0791 413.056 44.0791C410.277 44.0791 408.563 45.0725 407.915 47.0593C407.266 49.0461 406.942 51.3332 406.942 53.9207Z" fill="white"/>
<path d="M506.847 97.0295C503.836 97.0295 501.567 96.3133 500.038 94.881C498.51 93.4487 497.491 91.5543 496.981 89.1978C496.518 86.7952 496.286 84.1846 496.286 81.3662V53.9207C496.286 51.287 495.939 48.9768 495.244 46.99C494.55 44.957 492.859 43.9405 490.173 43.9405C488.32 43.9405 486.815 44.5643 485.657 45.8118C484.499 47.0131 483.596 48.6996 482.947 50.8712C482.253 52.9966 481.766 55.5378 481.488 58.4949C481.257 61.4058 481.141 64.5477 481.141 67.9207V81.3662C481.141 84.1846 480.886 86.7952 480.377 89.1978C479.914 91.5543 478.918 93.4487 477.389 94.881C475.907 96.3133 473.638 97.0295 470.581 97.0295C467.524 97.0295 465.231 96.3133 463.703 94.881C462.221 93.4487 461.225 91.5543 460.715 89.1978C460.252 86.7952 460.021 84.1846 460.021 81.3662V43.3861C460.021 40.4752 460.229 37.8415 460.646 35.4851C461.109 33.1286 462.082 31.2574 463.564 29.8712C465.092 28.4389 467.431 27.7227 470.581 27.7227C473.638 27.7227 475.907 28.3234 477.389 29.5247C478.918 30.6798 479.914 32.1584 480.377 33.9603C480.886 35.7161 481.141 37.5181 481.141 39.3663C482.067 36.363 483.966 33.6831 486.838 31.3267C489.71 28.924 493.23 27.7227 497.398 27.7227C500.455 27.7227 503.419 28.462 506.291 29.9405C509.162 31.4191 511.617 33.8217 513.655 37.1484C515.045 34.0065 517.592 31.6501 521.297 30.0791C525.049 28.5082 528.801 27.7227 532.552 27.7227C535.1 27.7227 537.647 28.1386 540.194 28.9702C542.742 29.8019 545.034 31.1881 547.072 33.1286C549.11 35.0692 550.755 37.6105 552.005 40.7524C553.302 43.8481 553.95 47.6831 553.95 52.2573V81.3662C553.95 84.1846 553.672 86.7952 553.117 89.1978C552.607 91.5543 551.588 93.4487 550.06 94.881C548.531 96.3133 546.262 97.0295 543.251 97.0295C540.194 97.0295 537.902 96.3133 536.373 94.881C534.845 93.4487 533.826 91.5543 533.316 89.1978C532.807 86.7952 532.552 84.1846 532.552 81.3662V53.9207C532.552 51.2408 532.182 48.9075 531.441 46.9207C530.7 44.9339 528.986 43.9405 526.299 43.9405C524.215 43.9405 522.548 44.8184 521.297 46.5742C520.093 48.2837 519.213 50.5247 518.657 53.2969C518.101 56.0692 517.731 59.0494 517.546 62.2375V81.3662C517.546 84.1846 517.291 86.7952 516.781 89.1978C516.272 91.5543 515.253 93.4487 513.725 94.881C512.242 96.3133 509.95 97.0295 506.847 97.0295Z" fill="white"/>
<path d="M594.107 10.5346C594.107 14.0924 593.18 16.7491 591.328 18.5049C589.475 20.2145 586.881 21.0693 583.547 21.0693C580.212 21.0693 577.618 20.2145 575.765 18.5049C573.913 16.7491 572.986 14.0924 572.986 10.5346C572.986 6.83827 573.913 4.15841 575.765 2.49504C577.618 0.831681 580.212 0 583.547 0C587.113 0 589.753 0.831681 591.467 2.49504C593.227 4.15841 594.107 6.83827 594.107 10.5346ZM572.847 81.5048V43.2474C572.847 40.4752 573.079 37.9108 573.542 35.5544C574.052 33.198 575.047 31.3036 576.53 29.8712C578.058 28.4389 580.351 27.7227 583.408 27.7227C586.464 27.7227 588.734 28.4389 590.216 29.8712C591.745 31.3036 592.74 33.198 593.204 35.5544C593.713 37.9108 593.968 40.4752 593.968 43.2474V81.5048C593.968 84.3233 593.713 86.9107 593.204 89.2671C592.74 91.6236 591.745 93.518 590.216 94.9503C588.734 96.3364 586.464 97.0295 583.408 97.0295C580.351 97.0295 578.058 96.3364 576.53 94.9503C575.047 93.518 574.052 91.6236 573.542 89.2671C573.079 86.9107 572.847 84.3233 572.847 81.5048Z" fill="white"/>
<path d="M672.752 52.3959V81.2276C672.752 84.046 672.474 86.6566 671.918 89.0592C671.409 91.4619 670.367 93.4025 668.792 94.881C667.263 96.3133 664.971 97.0295 661.914 97.0295C658.903 97.0295 656.634 96.3133 655.105 94.881C653.577 93.4487 652.558 91.5312 652.049 89.1285C651.585 86.7259 651.354 84.0922 651.354 81.2276V54.1979C651.354 51.4256 651.006 49.023 650.312 46.99C649.663 44.957 647.973 43.9405 645.24 43.9405C643.341 43.9405 641.813 44.5643 640.655 45.8118C639.497 47.0593 638.594 48.7689 637.945 50.9405C637.25 53.1121 636.787 55.6765 636.556 58.6335C636.324 61.5444 636.208 64.6863 636.208 68.0593V81.2276C636.208 84.046 635.93 86.6566 635.375 89.0592C634.865 91.4619 633.823 93.4025 632.248 94.881C630.72 96.3133 628.427 97.0295 625.37 97.0295C622.36 97.0295 620.09 96.3133 618.562 94.881C617.033 93.4487 616.014 91.5312 615.505 89.1285C615.042 86.7259 614.81 84.0922 614.81 81.2276V43.3861C614.81 40.4752 614.995 37.8415 615.366 35.4851C615.783 33.1286 616.732 31.2574 618.214 29.8712C619.743 28.4389 622.128 27.7227 625.37 27.7227C628.381 27.7227 630.65 28.3234 632.179 29.5247C633.754 30.6798 634.819 32.1584 635.375 33.9603C635.93 35.7161 636.208 37.5181 636.208 39.3663C637.042 36.3168 638.733 33.6138 641.28 31.2574C643.827 28.9009 647.185 27.7227 651.354 27.7227C653.901 27.7227 656.449 28.1386 658.996 28.9702C661.543 29.8019 663.836 31.1881 665.874 33.1286C667.912 35.0692 669.556 37.6105 670.807 40.7524C672.104 43.8943 672.752 47.7755 672.752 52.3959Z" fill="white"/>
</svg>
