<svg width="93" height="100" viewBox="0 0 93 100" fill="none" xmlns="http://www.w3.org/2000/svg">
<path fill-rule="evenodd" clip-rule="evenodd" d="M91.1446 16.9535L71.4456 25.0801L25.8825 75.5688L19.8136 95.9958L3.32809 81.1187L23.0271 72.9921L68.5902 22.5034L74.6592 2.07642L91.1446 16.9535Z" fill="#6FCCD8"/>
<path d="M23.1344 11.5672C23.1344 17.9555 17.9556 23.1343 11.5672 23.1343C5.17881 23.1343 0 17.9555 0 11.5672C0 5.1788 5.17881 0 11.5672 0C17.9556 0 23.1344 5.1788 23.1344 11.5672Z" fill="#2E37A4"/>
<path d="M57.4629 11.5672C57.4629 17.9555 52.284 23.1343 45.8957 23.1343C39.5073 23.1343 34.3285 17.9555 34.3285 11.5672C34.3285 5.1788 39.5073 0 45.8957 0C52.284 0 57.4629 5.1788 57.4629 11.5672Z" fill="#2E37A4"/>
<path d="M92.5376 11.5672C92.5376 17.9555 87.3588 23.1343 80.9704 23.1343C74.582 23.1343 69.4032 17.9555 69.4032 11.5672C69.4032 5.1788 74.582 0 80.9704 0C87.3588 0 92.5376 5.1788 92.5376 11.5672Z" fill="#2E37A4"/>
<path d="M57.4629 49.6269C57.4629 56.0152 52.284 61.194 45.8957 61.194C39.5073 61.194 34.3285 56.0152 34.3285 49.6269C34.3285 43.2385 39.5073 38.0597 45.8957 38.0597C52.284 38.0597 57.4629 43.2385 57.4629 49.6269Z" fill="#2E37A4"/>
<path d="M92.5376 49.6269C92.5376 56.0152 87.3588 61.194 80.9704 61.194C74.582 61.194 69.4032 56.0152 69.4032 49.6269C69.4032 43.2385 74.582 38.0597 80.9704 38.0597C87.3588 38.0597 92.5376 43.2385 92.5376 49.6269Z" fill="#2E37A4"/>
<path d="M23.1344 88.4328C23.1344 94.8212 17.9556 100 11.5672 100C5.17881 100 0 94.8212 0 88.4328C0 82.0445 5.17881 76.8657 11.5672 76.8657C17.9556 76.8657 23.1344 82.0445 23.1344 88.4328Z" fill="#2E37A4"/>
<path d="M92.5376 88.4328C92.5376 94.8212 87.3588 100 80.9704 100C74.582 100 69.4032 94.8212 69.4032 88.4328C69.4032 82.0445 74.582 76.8657 80.9704 76.8657C87.3588 76.8657 92.5376 82.0445 92.5376 88.4328Z" fill="#2E37A4"/>
</svg>
